<mxfile host="app.diagrams.net" modified="2021-11-05T11:17:25.418Z" agent="5.0 (X11; Linux x86_64) AppleWebKit/537.36 (KHTML, like Gecko) Chrome/93.0.4577.63 Safari/537.36 OPR/79.0.4143.22" etag="Nsvg_iGWYza-oE68yK9X" version="15.6.8" type="github" pages="3">
  <diagram id="MU_yDZtVSF_CshAC8WVe" name="1 - Mastering the Sounds">
    <mxGraphModel dx="1164" dy="462" grid="1" gridSize="10" guides="1" tooltips="1" connect="1" arrows="1" fold="1" page="1" pageScale="1" pageWidth="827" pageHeight="1169" math="0" shadow="0">
      <root>
        <mxCell id="0" />
        <mxCell id="1" parent="0" />
        <mxCell id="lbNhMh24D-Q8IX85SVq0-1" value="Sounds" style="text;html=1;resizable=0;autosize=1;align=center;verticalAlign=middle;points=[];rounded=0;fontStyle=5;dashed=1;shadow=0;sketch=0;glass=0;fontSize=30;direction=west;rotation=0;" vertex="1" parent="1">
          <mxGeometry x="350" y="20" width="130" height="40" as="geometry" />
        </mxCell>
        <mxCell id="lbNhMh24D-Q8IX85SVq0-10" style="edgeStyle=orthogonalEdgeStyle;rounded=0;orthogonalLoop=1;jettySize=auto;html=1;entryX=1;entryY=0.5;entryDx=0;entryDy=0;" edge="1" parent="1" source="lbNhMh24D-Q8IX85SVq0-2" target="lbNhMh24D-Q8IX85SVq0-3">
          <mxGeometry relative="1" as="geometry">
            <Array as="points">
              <mxPoint x="270" y="240" />
              <mxPoint x="270" y="240" />
            </Array>
          </mxGeometry>
        </mxCell>
        <mxCell id="lbNhMh24D-Q8IX85SVq0-12" value="Learn Natural&lt;br&gt;Pronunciation" style="edgeLabel;html=1;align=center;verticalAlign=middle;resizable=0;points=[];" vertex="1" connectable="0" parent="lbNhMh24D-Q8IX85SVq0-10">
          <mxGeometry x="0.4921" y="-3" relative="1" as="geometry">
            <mxPoint x="36" y="4" as="offset" />
          </mxGeometry>
        </mxCell>
        <mxCell id="lbNhMh24D-Q8IX85SVq0-14" style="edgeStyle=orthogonalEdgeStyle;rounded=0;orthogonalLoop=1;jettySize=auto;html=1;entryX=1;entryY=0.75;entryDx=0;entryDy=0;" edge="1" parent="1" source="lbNhMh24D-Q8IX85SVq0-2" target="lbNhMh24D-Q8IX85SVq0-6">
          <mxGeometry relative="1" as="geometry">
            <Array as="points">
              <mxPoint x="320" y="380" />
            </Array>
          </mxGeometry>
        </mxCell>
        <mxCell id="lbNhMh24D-Q8IX85SVq0-15" value="Practice the Natural&lt;br&gt;way to spell the sounds" style="edgeLabel;html=1;align=center;verticalAlign=middle;resizable=0;points=[];" vertex="1" connectable="0" parent="lbNhMh24D-Q8IX85SVq0-14">
          <mxGeometry x="0.5492" y="1" relative="1" as="geometry">
            <mxPoint x="39" as="offset" />
          </mxGeometry>
        </mxCell>
        <mxCell id="lbNhMh24D-Q8IX85SVq0-17" style="edgeStyle=orthogonalEdgeStyle;rounded=0;orthogonalLoop=1;jettySize=auto;html=1;entryX=1;entryY=0.5;entryDx=0;entryDy=0;" edge="1" parent="1" source="lbNhMh24D-Q8IX85SVq0-2" target="lbNhMh24D-Q8IX85SVq0-5">
          <mxGeometry relative="1" as="geometry">
            <Array as="points">
              <mxPoint x="365" y="190" />
              <mxPoint x="250" y="190" />
              <mxPoint x="250" y="120" />
            </Array>
          </mxGeometry>
        </mxCell>
        <mxCell id="lbNhMh24D-Q8IX85SVq0-18" value="Always use&lt;br&gt;the Contractions" style="edgeLabel;html=1;align=center;verticalAlign=middle;resizable=0;points=[];" vertex="1" connectable="0" parent="lbNhMh24D-Q8IX85SVq0-17">
          <mxGeometry x="0.3974" y="1" relative="1" as="geometry">
            <mxPoint as="offset" />
          </mxGeometry>
        </mxCell>
        <mxCell id="lbNhMh24D-Q8IX85SVq0-20" style="edgeStyle=orthogonalEdgeStyle;rounded=0;orthogonalLoop=1;jettySize=auto;html=1;entryX=0;entryY=0.5;entryDx=0;entryDy=0;" edge="1" parent="1" source="lbNhMh24D-Q8IX85SVq0-2" target="lbNhMh24D-Q8IX85SVq0-9">
          <mxGeometry relative="1" as="geometry" />
        </mxCell>
        <mxCell id="lbNhMh24D-Q8IX85SVq0-21" value="Get Confidence" style="edgeLabel;html=1;align=center;verticalAlign=middle;resizable=0;points=[];" vertex="1" connectable="0" parent="lbNhMh24D-Q8IX85SVq0-20">
          <mxGeometry x="-0.299" y="2" relative="1" as="geometry">
            <mxPoint x="8" y="1" as="offset" />
          </mxGeometry>
        </mxCell>
        <mxCell id="lbNhMh24D-Q8IX85SVq0-28" style="edgeStyle=orthogonalEdgeStyle;rounded=0;orthogonalLoop=1;jettySize=auto;html=1;" edge="1" parent="1" source="lbNhMh24D-Q8IX85SVq0-2" target="lbNhMh24D-Q8IX85SVq0-4">
          <mxGeometry relative="1" as="geometry" />
        </mxCell>
        <mxCell id="lbNhMh24D-Q8IX85SVq0-29" value="Remember&lt;br&gt;the Sounds" style="edgeLabel;html=1;align=center;verticalAlign=middle;resizable=0;points=[];" vertex="1" connectable="0" parent="lbNhMh24D-Q8IX85SVq0-28">
          <mxGeometry x="-0.1105" relative="1" as="geometry">
            <mxPoint as="offset" />
          </mxGeometry>
        </mxCell>
        <mxCell id="lbNhMh24D-Q8IX85SVq0-2" value="Most Common Sounds" style="rounded=1;whiteSpace=wrap;html=1;absoluteArcSize=1;arcSize=14;strokeWidth=2;fillColor=#dae8fc;strokeColor=#6c8ebf;" vertex="1" parent="1">
          <mxGeometry x="380" y="200" width="90" height="82.5" as="geometry" />
        </mxCell>
        <mxCell id="lbNhMh24D-Q8IX85SVq0-3" value="YouGlish" style="shape=parallelogram;html=1;strokeWidth=2;perimeter=parallelogramPerimeter;whiteSpace=wrap;rounded=1;arcSize=12;size=0.23;shadow=0;glass=0;sketch=0;fillColor=#e1d5e7;fontSize=11;strokeColor=#9673a6;" vertex="1" parent="1">
          <mxGeometry x="90" y="210" width="100" height="60" as="geometry" />
        </mxCell>
        <mxCell id="lbNhMh24D-Q8IX85SVq0-4" value="Words&#39; LIst" style="shape=parallelogram;html=1;strokeWidth=2;perimeter=parallelogramPerimeter;whiteSpace=wrap;rounded=1;arcSize=12;size=0.23;shadow=0;glass=0;sketch=0;fillColor=#e1d5e7;fontSize=11;strokeColor=#9673a6;" vertex="1" parent="1">
          <mxGeometry x="390" y="415" width="100" height="60" as="geometry" />
        </mxCell>
        <mxCell id="lbNhMh24D-Q8IX85SVq0-5" value="Contractions" style="shape=parallelogram;html=1;strokeWidth=2;perimeter=parallelogramPerimeter;whiteSpace=wrap;rounded=1;arcSize=12;size=0.23;shadow=0;glass=0;sketch=0;fillColor=#e1d5e7;fontSize=11;strokeColor=#9673a6;" vertex="1" parent="1">
          <mxGeometry x="110" y="90" width="100" height="60" as="geometry" />
        </mxCell>
        <mxCell id="lbNhMh24D-Q8IX85SVq0-6" value="Read Mangas&lt;br&gt;Out Loud" style="shape=parallelogram;html=1;strokeWidth=2;perimeter=parallelogramPerimeter;whiteSpace=wrap;rounded=1;arcSize=12;size=0.23;shadow=0;glass=0;sketch=0;fillColor=#e1d5e7;fontSize=11;strokeColor=#9673a6;" vertex="1" parent="1">
          <mxGeometry x="70" y="340" width="100" height="60" as="geometry" />
        </mxCell>
        <mxCell id="lbNhMh24D-Q8IX85SVq0-7" value="Speak with&lt;br&gt;Myself" style="shape=parallelogram;html=1;strokeWidth=2;perimeter=parallelogramPerimeter;whiteSpace=wrap;rounded=1;arcSize=12;size=0.23;shadow=0;glass=0;sketch=0;fillColor=#e1d5e7;fontSize=11;strokeColor=#9673a6;" vertex="1" parent="1">
          <mxGeometry x="710" y="282.5" width="100" height="60" as="geometry" />
        </mxCell>
        <mxCell id="lbNhMh24D-Q8IX85SVq0-8" value="Speak on&lt;br&gt;Discord" style="shape=parallelogram;html=1;strokeWidth=2;perimeter=parallelogramPerimeter;whiteSpace=wrap;rounded=1;arcSize=12;size=0.23;shadow=0;glass=0;sketch=0;fillColor=#e1d5e7;fontSize=11;strokeColor=#9673a6;" vertex="1" parent="1">
          <mxGeometry x="700" y="410" width="100" height="60" as="geometry" />
        </mxCell>
        <mxCell id="lbNhMh24D-Q8IX85SVq0-23" style="edgeStyle=orthogonalEdgeStyle;rounded=0;orthogonalLoop=1;jettySize=auto;html=1;entryX=0;entryY=0.5;entryDx=0;entryDy=0;" edge="1" parent="1" source="lbNhMh24D-Q8IX85SVq0-9" target="lbNhMh24D-Q8IX85SVq0-8">
          <mxGeometry relative="1" as="geometry">
            <Array as="points">
              <mxPoint x="635" y="440" />
            </Array>
          </mxGeometry>
        </mxCell>
        <mxCell id="lbNhMh24D-Q8IX85SVq0-26" value="Step #2" style="edgeLabel;html=1;align=center;verticalAlign=middle;resizable=0;points=[];" vertex="1" connectable="0" parent="lbNhMh24D-Q8IX85SVq0-23">
          <mxGeometry x="0.5182" y="4" relative="1" as="geometry">
            <mxPoint x="13" y="4" as="offset" />
          </mxGeometry>
        </mxCell>
        <mxCell id="lbNhMh24D-Q8IX85SVq0-32" style="edgeStyle=orthogonalEdgeStyle;rounded=0;orthogonalLoop=1;jettySize=auto;html=1;entryX=0.059;entryY=0.574;entryDx=0;entryDy=0;entryPerimeter=0;" edge="1" parent="1" source="lbNhMh24D-Q8IX85SVq0-9" target="lbNhMh24D-Q8IX85SVq0-7">
          <mxGeometry relative="1" as="geometry">
            <Array as="points">
              <mxPoint x="635" y="317" />
            </Array>
          </mxGeometry>
        </mxCell>
        <mxCell id="lbNhMh24D-Q8IX85SVq0-33" value="Step #1" style="edgeLabel;html=1;align=center;verticalAlign=middle;resizable=0;points=[];" vertex="1" connectable="0" parent="lbNhMh24D-Q8IX85SVq0-32">
          <mxGeometry x="0.0051" y="-2" relative="1" as="geometry">
            <mxPoint x="11" y="-6" as="offset" />
          </mxGeometry>
        </mxCell>
        <mxCell id="lbNhMh24D-Q8IX85SVq0-9" value="Speak" style="rounded=1;whiteSpace=wrap;html=1;absoluteArcSize=1;arcSize=14;strokeWidth=2;fillColor=#dae8fc;strokeColor=#6c8ebf;" vertex="1" parent="1">
          <mxGeometry x="590" y="200" width="90" height="82.5" as="geometry" />
        </mxCell>
        <mxCell id="lbNhMh24D-Q8IX85SVq0-30" value="Youglish&lt;br&gt;&amp;nbsp;Link:&amp;nbsp;https://youglish.com/" style="rounded=0;whiteSpace=wrap;html=1;" vertex="1" parent="1">
          <mxGeometry x="330" y="505" width="150" height="70" as="geometry" />
        </mxCell>
        <mxCell id="lbNhMh24D-Q8IX85SVq0-31" value="Words&#39; List Link:&amp;nbsp;https://s3.us-west-1.amazonaws.com/fluent.pronunciation.challenge/The+Fluent+Pronunciation+Challenge+-+Word+List+2.pdf" style="rounded=0;whiteSpace=wrap;html=1;" vertex="1" parent="1">
          <mxGeometry x="160" y="605" width="530" height="60" as="geometry" />
        </mxCell>
      </root>
    </mxGraphModel>
  </diagram>
  <diagram id="aZxajL0S6gC6csD1GXac" name="2 - Speak without Thinking">
    <mxGraphModel dx="1164" dy="462" grid="1" gridSize="10" guides="1" tooltips="1" connect="1" arrows="1" fold="1" page="1" pageScale="1" pageWidth="827" pageHeight="1169" math="0" shadow="0">
      <root>
        <mxCell id="Cd10RSg534kVP7aMXNiR-0" />
        <mxCell id="Cd10RSg534kVP7aMXNiR-1" parent="Cd10RSg534kVP7aMXNiR-0" />
        <mxCell id="J9QsXlOPBP3_kP1bE2PN-0" value="Speak without&lt;br&gt;Thinking" style="text;html=1;resizable=0;autosize=1;align=center;verticalAlign=middle;points=[];rounded=0;fontStyle=5;dashed=1;shadow=0;sketch=0;glass=0;fontSize=30;direction=west;rotation=0;" vertex="1" parent="Cd10RSg534kVP7aMXNiR-1">
          <mxGeometry x="305" width="220" height="80" as="geometry" />
        </mxCell>
        <mxCell id="HOcL1fVXIzmRyTH_UzaQ-5" style="edgeStyle=orthogonalEdgeStyle;rounded=0;orthogonalLoop=1;jettySize=auto;html=1;" edge="1" parent="Cd10RSg534kVP7aMXNiR-1" source="outEpWW_ZAS01-BAC8ac-0" target="HOcL1fVXIzmRyTH_UzaQ-0">
          <mxGeometry relative="1" as="geometry" />
        </mxCell>
        <mxCell id="HOcL1fVXIzmRyTH_UzaQ-6" value="#NoTranslations" style="edgeLabel;html=1;align=center;verticalAlign=middle;resizable=0;points=[];" vertex="1" connectable="0" parent="HOcL1fVXIzmRyTH_UzaQ-5">
          <mxGeometry x="0.2809" y="4" relative="1" as="geometry">
            <mxPoint x="24" y="-4" as="offset" />
          </mxGeometry>
        </mxCell>
        <mxCell id="HOcL1fVXIzmRyTH_UzaQ-8" style="edgeStyle=orthogonalEdgeStyle;rounded=0;orthogonalLoop=1;jettySize=auto;html=1;entryX=1;entryY=0.5;entryDx=0;entryDy=0;" edge="1" parent="Cd10RSg534kVP7aMXNiR-1" source="outEpWW_ZAS01-BAC8ac-0" target="HOcL1fVXIzmRyTH_UzaQ-1">
          <mxGeometry relative="1" as="geometry">
            <Array as="points">
              <mxPoint x="380" y="270" />
              <mxPoint x="229" y="270" />
            </Array>
          </mxGeometry>
        </mxCell>
        <mxCell id="HOcL1fVXIzmRyTH_UzaQ-9" value="Just Open my Mouth&lt;br&gt;and Speak" style="edgeLabel;html=1;align=center;verticalAlign=middle;resizable=0;points=[];" vertex="1" connectable="0" parent="HOcL1fVXIzmRyTH_UzaQ-8">
          <mxGeometry x="0.5489" y="1" relative="1" as="geometry">
            <mxPoint x="39" y="-1" as="offset" />
          </mxGeometry>
        </mxCell>
        <mxCell id="HOcL1fVXIzmRyTH_UzaQ-11" style="edgeStyle=orthogonalEdgeStyle;rounded=0;orthogonalLoop=1;jettySize=auto;html=1;entryX=0;entryY=0.5;entryDx=0;entryDy=0;" edge="1" parent="Cd10RSg534kVP7aMXNiR-1" source="outEpWW_ZAS01-BAC8ac-0" target="HOcL1fVXIzmRyTH_UzaQ-2">
          <mxGeometry relative="1" as="geometry">
            <Array as="points">
              <mxPoint x="425" y="130" />
            </Array>
          </mxGeometry>
        </mxCell>
        <mxCell id="HOcL1fVXIzmRyTH_UzaQ-12" value="Don&#39;t Struggle with&lt;br&gt;the Sounds" style="edgeLabel;html=1;align=center;verticalAlign=middle;resizable=0;points=[];" vertex="1" connectable="0" parent="HOcL1fVXIzmRyTH_UzaQ-11">
          <mxGeometry x="-0.119" y="2" relative="1" as="geometry">
            <mxPoint as="offset" />
          </mxGeometry>
        </mxCell>
        <mxCell id="HOcL1fVXIzmRyTH_UzaQ-13" style="edgeStyle=orthogonalEdgeStyle;rounded=0;orthogonalLoop=1;jettySize=auto;html=1;" edge="1" parent="Cd10RSg534kVP7aMXNiR-1" source="outEpWW_ZAS01-BAC8ac-0" target="HOcL1fVXIzmRyTH_UzaQ-3">
          <mxGeometry relative="1" as="geometry" />
        </mxCell>
        <mxCell id="HOcL1fVXIzmRyTH_UzaQ-14" value="Don&#39;t Struggle with&lt;br&gt;the Contractions" style="edgeLabel;html=1;align=center;verticalAlign=middle;resizable=0;points=[];" vertex="1" connectable="0" parent="HOcL1fVXIzmRyTH_UzaQ-13">
          <mxGeometry x="0.1087" y="-2" relative="1" as="geometry">
            <mxPoint as="offset" />
          </mxGeometry>
        </mxCell>
        <mxCell id="HOcL1fVXIzmRyTH_UzaQ-15" style="edgeStyle=orthogonalEdgeStyle;rounded=0;orthogonalLoop=1;jettySize=auto;html=1;" edge="1" parent="Cd10RSg534kVP7aMXNiR-1" source="outEpWW_ZAS01-BAC8ac-0" target="HOcL1fVXIzmRyTH_UzaQ-4">
          <mxGeometry relative="1" as="geometry" />
        </mxCell>
        <mxCell id="HOcL1fVXIzmRyTH_UzaQ-16" value="Using English as&lt;br&gt;my Mother Tongue" style="edgeLabel;html=1;align=center;verticalAlign=middle;resizable=0;points=[];" vertex="1" connectable="0" parent="HOcL1fVXIzmRyTH_UzaQ-15">
          <mxGeometry x="-0.1215" y="-4" relative="1" as="geometry">
            <mxPoint as="offset" />
          </mxGeometry>
        </mxCell>
        <mxCell id="outEpWW_ZAS01-BAC8ac-0" value="Speak" style="rounded=1;whiteSpace=wrap;html=1;absoluteArcSize=1;arcSize=14;strokeWidth=2;fillColor=#dae8fc;strokeColor=#6c8ebf;" vertex="1" parent="Cd10RSg534kVP7aMXNiR-1">
          <mxGeometry x="380" y="160" width="90" height="82.5" as="geometry" />
        </mxCell>
        <mxCell id="HOcL1fVXIzmRyTH_UzaQ-0" value="Farewall&lt;br&gt;Translations" style="shape=parallelogram;html=1;strokeWidth=2;perimeter=parallelogramPerimeter;whiteSpace=wrap;rounded=1;arcSize=12;size=0.23;shadow=0;glass=0;sketch=0;fillColor=#e1d5e7;fontSize=11;strokeColor=#9673a6;" vertex="1" parent="Cd10RSg534kVP7aMXNiR-1">
          <mxGeometry x="150" y="130" width="100" height="60" as="geometry" />
        </mxCell>
        <mxCell id="HOcL1fVXIzmRyTH_UzaQ-1" value="Get &lt;br&gt;Confidence" style="shape=parallelogram;html=1;strokeWidth=2;perimeter=parallelogramPerimeter;whiteSpace=wrap;rounded=1;arcSize=12;size=0.23;shadow=0;glass=0;sketch=0;fillColor=#e1d5e7;fontSize=11;strokeColor=#9673a6;" vertex="1" parent="Cd10RSg534kVP7aMXNiR-1">
          <mxGeometry x="130" y="230" width="100" height="60" as="geometry" />
        </mxCell>
        <mxCell id="HOcL1fVXIzmRyTH_UzaQ-2" value="Master the&lt;br&gt;Common&lt;br&gt;Sounds" style="shape=parallelogram;html=1;strokeWidth=2;perimeter=parallelogramPerimeter;whiteSpace=wrap;rounded=1;arcSize=12;size=0.23;shadow=0;glass=0;sketch=0;fillColor=#e1d5e7;fontSize=11;strokeColor=#9673a6;" vertex="1" parent="Cd10RSg534kVP7aMXNiR-1">
          <mxGeometry x="610" y="100" width="100" height="60" as="geometry" />
        </mxCell>
        <mxCell id="HOcL1fVXIzmRyTH_UzaQ-3" value="Master the&lt;br&gt;Contractioons" style="shape=parallelogram;html=1;strokeWidth=2;perimeter=parallelogramPerimeter;whiteSpace=wrap;rounded=1;arcSize=12;size=0.23;shadow=0;glass=0;sketch=0;fillColor=#e1d5e7;fontSize=11;strokeColor=#9673a6;" vertex="1" parent="Cd10RSg534kVP7aMXNiR-1">
          <mxGeometry x="620" y="210" width="100" height="60" as="geometry" />
        </mxCell>
        <mxCell id="HOcL1fVXIzmRyTH_UzaQ-4" value="Train my Brain&lt;br&gt;to Think Just&lt;br&gt;in English" style="shape=parallelogram;html=1;strokeWidth=2;perimeter=parallelogramPerimeter;whiteSpace=wrap;rounded=1;arcSize=12;size=0.23;shadow=0;glass=0;sketch=0;fillColor=#e1d5e7;fontSize=11;strokeColor=#9673a6;" vertex="1" parent="Cd10RSg534kVP7aMXNiR-1">
          <mxGeometry x="430" y="340" width="130" height="70" as="geometry" />
        </mxCell>
      </root>
    </mxGraphModel>
  </diagram>
  <diagram id="u_TLpRKg8pumAkmBCasJ" name="3 - Using the Flow">
    <mxGraphModel dx="1164" dy="462" grid="1" gridSize="10" guides="1" tooltips="1" connect="1" arrows="1" fold="1" page="1" pageScale="1" pageWidth="827" pageHeight="1169" math="0" shadow="0">
      <root>
        <mxCell id="_ccC6OD8kDOEk7jn69el-0" />
        <mxCell id="_ccC6OD8kDOEk7jn69el-1" parent="_ccC6OD8kDOEk7jn69el-0" />
        <mxCell id="bIFlhB43qeMXrSBSScwW-0" value="Using the Flow&lt;br&gt;(Rythm and Intonation)" style="text;html=1;resizable=0;autosize=1;align=center;verticalAlign=middle;points=[];rounded=0;fontStyle=5;dashed=1;shadow=0;sketch=0;glass=0;fontSize=30;direction=west;rotation=0;" vertex="1" parent="_ccC6OD8kDOEk7jn69el-1">
          <mxGeometry x="245" width="340" height="80" as="geometry" />
        </mxCell>
        <mxCell id="v-ffRodmDonzRS6Ak-25-3" style="edgeStyle=orthogonalEdgeStyle;rounded=0;orthogonalLoop=1;jettySize=auto;html=1;entryX=1;entryY=0.5;entryDx=0;entryDy=0;" edge="1" parent="_ccC6OD8kDOEk7jn69el-1" source="5IoaArwdKieXWaxmsJIh-0" target="v-ffRodmDonzRS6Ak-25-0">
          <mxGeometry relative="1" as="geometry" />
        </mxCell>
        <mxCell id="v-ffRodmDonzRS6Ak-25-4" value="Speaking what&lt;br&gt;I&#39;m seeing" style="edgeLabel;html=1;align=center;verticalAlign=middle;resizable=0;points=[];" vertex="1" connectable="0" parent="v-ffRodmDonzRS6Ak-25-3">
          <mxGeometry x="0.3319" y="-3" relative="1" as="geometry">
            <mxPoint x="24" y="3" as="offset" />
          </mxGeometry>
        </mxCell>
        <mxCell id="v-ffRodmDonzRS6Ak-25-5" style="edgeStyle=orthogonalEdgeStyle;rounded=0;orthogonalLoop=1;jettySize=auto;html=1;" edge="1" parent="_ccC6OD8kDOEk7jn69el-1" source="5IoaArwdKieXWaxmsJIh-0" target="v-ffRodmDonzRS6Ak-25-1">
          <mxGeometry relative="1" as="geometry" />
        </mxCell>
        <mxCell id="v-ffRodmDonzRS6Ak-25-6" value="Speaking what&lt;br&gt;I ain&#39;t seeing" style="edgeLabel;html=1;align=center;verticalAlign=middle;resizable=0;points=[];" vertex="1" connectable="0" parent="v-ffRodmDonzRS6Ak-25-5">
          <mxGeometry x="-0.2548" y="-1" relative="1" as="geometry">
            <mxPoint as="offset" />
          </mxGeometry>
        </mxCell>
        <mxCell id="v-ffRodmDonzRS6Ak-25-7" style="edgeStyle=orthogonalEdgeStyle;rounded=0;orthogonalLoop=1;jettySize=auto;html=1;" edge="1" parent="_ccC6OD8kDOEk7jn69el-1" source="5IoaArwdKieXWaxmsJIh-0" target="v-ffRodmDonzRS6Ak-25-2">
          <mxGeometry relative="1" as="geometry" />
        </mxCell>
        <mxCell id="v-ffRodmDonzRS6Ak-25-8" value="Speaking Cool&lt;br&gt;Lyrics" style="edgeLabel;html=1;align=center;verticalAlign=middle;resizable=0;points=[];" vertex="1" connectable="0" parent="v-ffRodmDonzRS6Ak-25-7">
          <mxGeometry x="-0.3494" y="1" relative="1" as="geometry">
            <mxPoint x="17" y="1" as="offset" />
          </mxGeometry>
        </mxCell>
        <mxCell id="5IoaArwdKieXWaxmsJIh-0" value="Using the Flow" style="rounded=1;whiteSpace=wrap;html=1;absoluteArcSize=1;arcSize=14;strokeWidth=2;fillColor=#dae8fc;strokeColor=#6c8ebf;" vertex="1" parent="_ccC6OD8kDOEk7jn69el-1">
          <mxGeometry x="380" y="160" width="90" height="82.5" as="geometry" />
        </mxCell>
        <mxCell id="v-ffRodmDonzRS6Ak-25-0" value="Reading Out&lt;br&gt;Loud" style="shape=parallelogram;html=1;strokeWidth=2;perimeter=parallelogramPerimeter;whiteSpace=wrap;rounded=1;arcSize=12;size=0.23;shadow=0;glass=0;sketch=0;fillColor=#e1d5e7;fontSize=11;strokeColor=#9673a6;" vertex="1" parent="_ccC6OD8kDOEk7jn69el-1">
          <mxGeometry x="150" y="171.25" width="100" height="60" as="geometry" />
        </mxCell>
        <mxCell id="v-ffRodmDonzRS6Ak-25-1" value="&lt;span style=&quot;font-weight: normal&quot;&gt;Speaking&lt;/span&gt;" style="shape=parallelogram;html=1;strokeWidth=2;perimeter=parallelogramPerimeter;whiteSpace=wrap;rounded=1;arcSize=12;size=0.23;shadow=0;glass=0;sketch=0;fillColor=#e1d5e7;fontSize=11;strokeColor=#9673a6;fontStyle=1" vertex="1" parent="_ccC6OD8kDOEk7jn69el-1">
          <mxGeometry x="375" y="340" width="100" height="60" as="geometry" />
        </mxCell>
        <mxCell id="v-ffRodmDonzRS6Ak-25-2" value="Singing" style="shape=parallelogram;html=1;strokeWidth=2;perimeter=parallelogramPerimeter;whiteSpace=wrap;rounded=1;arcSize=12;size=0.23;shadow=0;glass=0;sketch=0;fillColor=#e1d5e7;fontSize=11;strokeColor=#9673a6;" vertex="1" parent="_ccC6OD8kDOEk7jn69el-1">
          <mxGeometry x="590" y="171.25" width="100" height="60" as="geometry" />
        </mxCell>
        <mxCell id="u5Z-xX9VxhHfWtHJ6Kdn-0" value="Cool Singers: NateWantsToBattle, AmaLee and Linkin Park" style="rounded=0;whiteSpace=wrap;html=1;" vertex="1" parent="_ccC6OD8kDOEk7jn69el-1">
          <mxGeometry x="339" y="430" width="150" height="70" as="geometry" />
        </mxCell>
      </root>
    </mxGraphModel>
  </diagram>
</mxfile>
